<svg id="visual" viewBox="0 0 900 600" width="900" height="600" xmlns="http://www.w3.org/2000/svg" xmlns:xlink="http://www.w3.org/1999/xlink" version="1.1"><rect x="0" y="0" width="900" height="600" fill="#140021"></rect><path d="M0 249L129 249L129 381L257 381L257 332L386 332L386 250L514 250L514 314L643 314L643 261L771 261L771 353L900 353L900 360L900 601L900 601L771 601L771 601L643 601L643 601L514 601L514 601L386 601L386 601L257 601L257 601L129 601L129 601L0 601Z" fill="#9900ff"></path><path d="M0 430L129 430L129 356L257 356L257 365L386 365L386 354L514 354L514 457L643 457L643 393L771 393L771 433L900 433L900 429L900 601L900 601L771 601L771 601L643 601L643 601L514 601L514 601L386 601L386 601L257 601L257 601L129 601L129 601L0 601Z" fill="#7700c6"></path><path d="M0 480L129 480L129 516L257 516L257 523L386 523L386 522L514 522L514 471L643 471L643 473L771 473L771 443L900 443L900 514L900 601L900 601L771 601L771 601L643 601L643 601L514 601L514 601L386 601L386 601L257 601L257 601L129 601L129 601L0 601Z" fill="#560090"></path></svg>